<mxfile host="app.diagrams.net" agent="Mozilla/5.0 (Macintosh; Intel Mac OS X 10_15_7) AppleWebKit/537.36 (KHTML, like Gecko) Chrome/129.0.0.0 Safari/537.36" version="24.8.3">
  <diagram name="PÃ¡gina-1" id="Uhqd_w13SB1Vz6j1SKYo">
    <mxGraphModel dx="2018" dy="1121" grid="1" gridSize="10" guides="1" tooltips="1" connect="1" arrows="1" fold="1" page="1" pageScale="1" pageWidth="1169" pageHeight="827" math="0" shadow="0">
      <root>
        <mxCell id="0" />
        <mxCell id="1" parent="0" />
        <mxCell id="0U3pOrwYKhlxMjeNWCwt-1" value="" style="shape=hexagon;perimeter=hexagonPerimeter2;whiteSpace=wrap;html=1;fixedSize=1;size=110;rotation=-90;" vertex="1" parent="1">
          <mxGeometry x="156.25" y="83.75" width="570" height="612.5" as="geometry" />
        </mxCell>
        <mxCell id="0U3pOrwYKhlxMjeNWCwt-2" value="" style="shape=hexagon;perimeter=hexagonPerimeter2;whiteSpace=wrap;html=1;fixedSize=1;size=47.5;rotation=-90;" vertex="1" parent="1">
          <mxGeometry x="312.5" y="275" width="245" height="230" as="geometry" />
        </mxCell>
        <mxCell id="0U3pOrwYKhlxMjeNWCwt-3" value="Application" style="text;html=1;align=center;verticalAlign=middle;whiteSpace=wrap;rounded=0;" vertex="1" parent="1">
          <mxGeometry x="407.5" y="140" width="60" height="30" as="geometry" />
        </mxCell>
        <mxCell id="0U3pOrwYKhlxMjeNWCwt-4" value="&lt;meta charset=&quot;utf-8&quot;&gt;&lt;span style=&quot;color: rgb(0, 0, 0); font-family: Helvetica; font-size: 12px; font-style: normal; font-variant-ligatures: normal; font-variant-caps: normal; font-weight: 400; letter-spacing: normal; orphans: 2; text-align: center; text-indent: 0px; text-transform: none; widows: 2; word-spacing: 0px; -webkit-text-stroke-width: 0px; white-space: normal; background-color: rgb(251, 251, 251); text-decoration-thickness: initial; text-decoration-style: initial; text-decoration-color: initial; display: inline !important; float: none;&quot;&gt;Domain&lt;/span&gt;" style="text;html=1;align=center;verticalAlign=middle;whiteSpace=wrap;rounded=0;" vertex="1" parent="1">
          <mxGeometry x="405" y="460" width="60" height="30" as="geometry" />
        </mxCell>
        <mxCell id="0U3pOrwYKhlxMjeNWCwt-5" value="Url" style="whiteSpace=wrap;html=1;aspect=fixed;" vertex="1" parent="1">
          <mxGeometry x="395" y="330" width="80" height="80" as="geometry" />
        </mxCell>
        <mxCell id="0U3pOrwYKhlxMjeNWCwt-6" value="UrlRepository Interface" style="whiteSpace=wrap;html=1;aspect=fixed;" vertex="1" parent="1">
          <mxGeometry x="660" y="350" width="80" height="80" as="geometry" />
        </mxCell>
        <mxCell id="0U3pOrwYKhlxMjeNWCwt-9" style="edgeStyle=orthogonalEdgeStyle;rounded=0;orthogonalLoop=1;jettySize=auto;html=1;" edge="1" parent="1" source="0U3pOrwYKhlxMjeNWCwt-7" target="0U3pOrwYKhlxMjeNWCwt-6">
          <mxGeometry relative="1" as="geometry" />
        </mxCell>
        <mxCell id="0U3pOrwYKhlxMjeNWCwt-7" value="UrlInMemory&lt;div&gt;Repository&lt;/div&gt;" style="whiteSpace=wrap;html=1;aspect=fixed;" vertex="1" parent="1">
          <mxGeometry x="800" y="350" width="80" height="80" as="geometry" />
        </mxCell>
        <mxCell id="0U3pOrwYKhlxMjeNWCwt-8" value="Application Interface" style="whiteSpace=wrap;html=1;aspect=fixed;" vertex="1" parent="1">
          <mxGeometry x="140" y="350" width="80" height="80" as="geometry" />
        </mxCell>
        <mxCell id="0U3pOrwYKhlxMjeNWCwt-13" value="" style="edgeStyle=orthogonalEdgeStyle;rounded=0;orthogonalLoop=1;jettySize=auto;html=1;" edge="1" parent="1" source="0U3pOrwYKhlxMjeNWCwt-11" target="0U3pOrwYKhlxMjeNWCwt-8">
          <mxGeometry relative="1" as="geometry" />
        </mxCell>
        <mxCell id="0U3pOrwYKhlxMjeNWCwt-11" value="Api Create Controller" style="whiteSpace=wrap;html=1;aspect=fixed;" vertex="1" parent="1">
          <mxGeometry x="20" y="300" width="80" height="80" as="geometry" />
        </mxCell>
        <mxCell id="0U3pOrwYKhlxMjeNWCwt-14" style="edgeStyle=orthogonalEdgeStyle;rounded=0;orthogonalLoop=1;jettySize=auto;html=1;" edge="1" parent="1" source="0U3pOrwYKhlxMjeNWCwt-12" target="0U3pOrwYKhlxMjeNWCwt-8">
          <mxGeometry relative="1" as="geometry" />
        </mxCell>
        <mxCell id="0U3pOrwYKhlxMjeNWCwt-15" style="edgeStyle=orthogonalEdgeStyle;rounded=0;orthogonalLoop=1;jettySize=auto;html=1;entryX=0.5;entryY=0;entryDx=0;entryDy=0;" edge="1" parent="1" source="0U3pOrwYKhlxMjeNWCwt-12" target="0U3pOrwYKhlxMjeNWCwt-6">
          <mxGeometry relative="1" as="geometry" />
        </mxCell>
        <mxCell id="0U3pOrwYKhlxMjeNWCwt-12" value="V1.Url Shortener&lt;br&gt;Service" style="whiteSpace=wrap;html=1;aspect=fixed;" vertex="1" parent="1">
          <mxGeometry x="395" y="170" width="80" height="80" as="geometry" />
        </mxCell>
        <mxCell id="0U3pOrwYKhlxMjeNWCwt-19" value="" style="edgeStyle=orthogonalEdgeStyle;rounded=0;orthogonalLoop=1;jettySize=auto;html=1;entryX=0;entryY=0.5;entryDx=0;entryDy=0;" edge="1" parent="1" source="0U3pOrwYKhlxMjeNWCwt-17" target="0U3pOrwYKhlxMjeNWCwt-8">
          <mxGeometry relative="1" as="geometry">
            <mxPoint x="140" y="490" as="targetPoint" />
          </mxGeometry>
        </mxCell>
        <mxCell id="0U3pOrwYKhlxMjeNWCwt-17" value="Api Read Controller" style="whiteSpace=wrap;html=1;aspect=fixed;" vertex="1" parent="1">
          <mxGeometry x="20" y="400" width="80" height="80" as="geometry" />
        </mxCell>
        <mxCell id="0U3pOrwYKhlxMjeNWCwt-21" style="edgeStyle=orthogonalEdgeStyle;rounded=0;orthogonalLoop=1;jettySize=auto;html=1;entryX=0.5;entryY=1;entryDx=0;entryDy=0;" edge="1" parent="1" source="0U3pOrwYKhlxMjeNWCwt-20" target="0U3pOrwYKhlxMjeNWCwt-8">
          <mxGeometry relative="1" as="geometry">
            <mxPoint x="220" y="490" as="targetPoint" />
          </mxGeometry>
        </mxCell>
        <mxCell id="0U3pOrwYKhlxMjeNWCwt-22" style="edgeStyle=orthogonalEdgeStyle;rounded=0;orthogonalLoop=1;jettySize=auto;html=1;entryX=0.5;entryY=1;entryDx=0;entryDy=0;" edge="1" parent="1" source="0U3pOrwYKhlxMjeNWCwt-20" target="0U3pOrwYKhlxMjeNWCwt-6">
          <mxGeometry relative="1" as="geometry" />
        </mxCell>
        <mxCell id="0U3pOrwYKhlxMjeNWCwt-20" value="V1.Url Retriever Service" style="whiteSpace=wrap;html=1;aspect=fixed;" vertex="1" parent="1">
          <mxGeometry x="395" y="520" width="80" height="80" as="geometry" />
        </mxCell>
      </root>
    </mxGraphModel>
  </diagram>
</mxfile>
